<svg xmlns="http://www.w3.org/2000/svg" xmlns:xlink="http://www.w3.org/1999/xlink" version="1.0" x="0px" y="0px" viewBox="0 0 26 26" style="enable-background:new 0 0 26 26;" xml:space="preserve"><g><path d="M9.188,12.417L9.188,12.417c-0.058-0.019-0.418-0.182-0.192-0.866H8.991c0.588-0.605,0.962-1.249,0.962-2.207   c0-1.475-0.816-2.281-1.955-2.281c-1.14,0-1.967,0.807-1.967,2.281c0,0.962,0.396,1.609,0.987,2.213   c0.229,0.604-0.183,0.828-0.269,0.86C5.557,12.848,4.06,13.474,4.06,14.25c0,0.21,0,0.196,0,0.405c0,1.058,2.051,1.298,3.948,1.298   c1.9,0,3.926-0.24,3.926-1.298c0-0.209,0-0.195,0-0.405C11.935,13.45,10.439,12.831,9.188,12.417z"></path><path d="M22,3H4C1.794,3,0,4.794,0,7v12c0,2.206,1.794,4,4,4h2c0.552,0,1-0.447,1-1v-1h1v1c0,0.553,0.448,1,1,1h8   c0.553,0,1-0.447,1-1v-1h1v1c0,0.553,0.447,1,1,1h2c2.206,0,4-1.794,4-4V7C26,4.794,24.206,3,22,3z M24,19c0,1.103-0.897,2-2,2h-1   v-1c0-0.553-0.447-1-1-1h-3c-0.553,0-1,0.447-1,1v1h-6v-1c0-0.553-0.448-1-1-1H6c-0.552,0-1,0.447-1,1v1H4c-1.103,0-2-0.897-2-2V7   c0-1.103,0.897-2,2-2h18c1.103,0,2,0.897,2,2V19z"></path><path d="M22.434,9.633c-0.217-0.527-0.518-0.979-0.903-1.356c-0.378-0.378-0.829-0.672-1.351-0.88   c-0.522-0.209-1.084-0.313-1.688-0.313c-0.608,0-1.179,0.112-1.715,0.337c-0.538,0.224-1.001,0.532-1.393,0.927   c-0.396,0.401-0.706,0.868-0.932,1.405c-0.226,0.535-0.339,1.113-0.339,1.733c0,0.652,0.108,1.253,0.325,1.798   c0.217,0.547,0.519,1.014,0.908,1.405c0.384,0.387,0.845,0.688,1.378,0.902c0.535,0.214,1.115,0.321,1.74,0.321   c0.371,0,0.704-0.017,1.004-0.051c0.298-0.033,0.608-0.086,0.929-0.156v-1.077c-0.293,0.085-0.613,0.152-0.962,0.203   c-0.348,0.05-0.669,0.075-0.965,0.075c-0.421,0-0.823-0.073-1.207-0.22c-0.385-0.146-0.723-0.363-1.013-0.649   c-0.3-0.289-0.534-0.648-0.705-1.076c-0.172-0.429-0.258-0.917-0.258-1.466c0-0.515,0.09-0.985,0.272-1.41   c0.183-0.425,0.423-0.781,0.723-1.071c0.314-0.3,0.659-0.526,1.03-0.677c0.372-0.153,0.766-0.228,1.184-0.228   c0.44,0,0.85,0.067,1.23,0.204c0.38,0.137,0.71,0.346,0.992,0.63c0.279,0.279,0.496,0.626,0.651,1.04   c0.156,0.415,0.232,0.898,0.232,1.451c0,0.313-0.033,0.621-0.098,0.925c-0.064,0.304-0.148,0.565-0.251,0.788h-0.794V9.064   l-1.17,0.005v0.308c-0.095-0.091-0.231-0.181-0.407-0.269c-0.177-0.088-0.379-0.131-0.604-0.131c-0.282,0-0.553,0.062-0.813,0.187   c-0.259,0.124-0.485,0.293-0.675,0.505c-0.201,0.233-0.361,0.51-0.481,0.829c-0.12,0.32-0.181,0.675-0.181,1.066   c0,0.381,0.048,0.735,0.146,1.059c0.097,0.325,0.228,0.593,0.395,0.802c0.169,0.216,0.37,0.381,0.603,0.495   c0.233,0.114,0.483,0.172,0.752,0.172c0.183,0,0.329-0.01,0.434-0.03c0.107-0.021,0.221-0.053,0.345-0.097   c0.11-0.036,0.209-0.082,0.3-0.136c0.088-0.054,0.179-0.111,0.271-0.172l0.079,0.34h2.585c0.201-0.309,0.371-0.659,0.51-1.156   c0.14-0.497,0.21-0.976,0.21-1.438h0C22.757,10.75,22.648,10.16,22.434,9.633z M19.263,12.713c-0.142,0.131-0.28,0.231-0.415,0.301   c-0.136,0.07-0.297,0.104-0.479,0.104c-0.35,0-0.602-0.129-0.755-0.387s-0.231-0.652-0.231-1.18c0-0.478,0.092-0.862,0.276-1.152   c0.183-0.29,0.447-0.435,0.789-0.435c0.155,0,0.293,0.017,0.416,0.048c0.122,0.031,0.254,0.083,0.399,0.153V12.713z"></path></g></svg>